<?xml version="1.0" encoding="UTF-8" standalone="no"?>
<!-- Created with Inkscape (http://www.inkscape.org/) -->

<svg
   xmlns:dc="http://purl.org/dc/elements/1.1/"
   xmlns:cc="http://creativecommons.org/ns#"
   xmlns:rdf="http://www.w3.org/1999/02/22-rdf-syntax-ns#"
   xmlns:svg="http://www.w3.org/2000/svg"
   xmlns="http://www.w3.org/2000/svg"
   xmlns:sodipodi="http://sodipodi.sourceforge.net/DTD/sodipodi-0.dtd"
   xmlns:inkscape="http://www.inkscape.org/namespaces/inkscape"
   width="623.06219"
   height="1122.6221"
   id="svg5217"
   version="1.1"
   inkscape:version="0.48.0 r9654"
   sodipodi:docname="replacement.svg">
  <defs
     id="defs5219">
    <filter
       id="filter3059-5-3-03-42"
       inkscape:label="Drop shadow"
       width="1.5"
       height="1.5"
       x="-0.25"
       y="-0.25"
       color-interpolation-filters="sRGB">
      <feGaussianBlur
         id="feGaussianBlur3061-5-8-3-286"
         in="SourceAlpha"
         stdDeviation="2"
         result="blur" />
      <feColorMatrix
         id="feColorMatrix3063-1-5-41-67"
         result="bluralpha"
         type="matrix"
         values="1 0 0 0 0 0 1 0 0 0 0 0 1 0 0 0 0 0 0.5 0 " />
      <feOffset
         id="feOffset3065-81-3-8-72"
         in="bluralpha"
         dx="4"
         dy="4"
         result="offsetBlur" />
      <feMerge
         id="feMerge3067-7-24-2-32">
        <feMergeNode
           id="feMergeNode3069-6-3-5-67"
           in="offsetBlur" />
        <feMergeNode
           id="feMergeNode3071-8-3-2-21"
           in="SourceGraphic" />
      </feMerge>
    </filter>
    <filter
       id="filter3059-5-3-03-42-8"
       inkscape:label="Drop shadow"
       width="1.5"
       height="1.5"
       x="-0.25"
       y="-0.25"
       color-interpolation-filters="sRGB">
      <feGaussianBlur
         id="feGaussianBlur3061-5-8-3-286-5"
         in="SourceAlpha"
         stdDeviation="2"
         result="blur" />
      <feColorMatrix
         id="feColorMatrix3063-1-5-41-67-9"
         result="bluralpha"
         type="matrix"
         values="1 0 0 0 0 0 1 0 0 0 0 0 1 0 0 0 0 0 0.5 0 " />
      <feOffset
         id="feOffset3065-81-3-8-72-2"
         in="bluralpha"
         dx="4"
         dy="4"
         result="offsetBlur" />
      <feMerge
         id="feMerge3067-7-24-2-32-0">
        <feMergeNode
           id="feMergeNode3069-6-3-5-67-3"
           in="offsetBlur" />
        <feMergeNode
           id="feMergeNode3071-8-3-2-21-4"
           in="SourceGraphic" />
      </feMerge>
    </filter>
    <filter
       id="filter3059-5-3-03-42-5"
       inkscape:label="Drop shadow"
       width="1.5"
       height="1.5"
       x="-0.25"
       y="-0.25"
       color-interpolation-filters="sRGB">
      <feGaussianBlur
         id="feGaussianBlur3061-5-8-3-286-4"
         in="SourceAlpha"
         stdDeviation="2"
         result="blur" />
      <feColorMatrix
         id="feColorMatrix3063-1-5-41-67-6"
         result="bluralpha"
         type="matrix"
         values="1 0 0 0 0 0 1 0 0 0 0 0 1 0 0 0 0 0 0.5 0 " />
      <feOffset
         id="feOffset3065-81-3-8-72-8"
         in="bluralpha"
         dx="4"
         dy="4"
         result="offsetBlur" />
      <feMerge
         id="feMerge3067-7-24-2-32-1">
        <feMergeNode
           id="feMergeNode3069-6-3-5-67-0"
           in="offsetBlur" />
        <feMergeNode
           id="feMergeNode3071-8-3-2-21-5"
           in="SourceGraphic" />
      </feMerge>
    </filter>
    <filter
       id="filter3059-5-3-03-42-81"
       inkscape:label="Drop shadow"
       width="1.5"
       height="1.5"
       x="-0.25"
       y="-0.25"
       color-interpolation-filters="sRGB">
      <feGaussianBlur
         id="feGaussianBlur3061-5-8-3-286-0"
         in="SourceAlpha"
         stdDeviation="2"
         result="blur" />
      <feColorMatrix
         id="feColorMatrix3063-1-5-41-67-97"
         result="bluralpha"
         type="matrix"
         values="1 0 0 0 0 0 1 0 0 0 0 0 1 0 0 0 0 0 0.5 0 " />
      <feOffset
         id="feOffset3065-81-3-8-72-3"
         in="bluralpha"
         dx="4"
         dy="4"
         result="offsetBlur" />
      <feMerge
         id="feMerge3067-7-24-2-32-9">
        <feMergeNode
           id="feMergeNode3069-6-3-5-67-1"
           in="offsetBlur" />
        <feMergeNode
           id="feMergeNode3071-8-3-2-21-2"
           in="SourceGraphic" />
      </feMerge>
    </filter>
    <filter
       id="filter3059-5-3-03-42-81-8"
       inkscape:label="Drop shadow"
       width="1.5"
       height="1.5"
       x="-0.25"
       y="-0.25"
       color-interpolation-filters="sRGB">
      <feGaussianBlur
         id="feGaussianBlur3061-5-8-3-286-0-7"
         in="SourceAlpha"
         stdDeviation="2"
         result="blur" />
      <feColorMatrix
         id="feColorMatrix3063-1-5-41-67-97-7"
         result="bluralpha"
         type="matrix"
         values="1 0 0 0 0 0 1 0 0 0 0 0 1 0 0 0 0 0 0.5 0 " />
      <feOffset
         id="feOffset3065-81-3-8-72-3-3"
         in="bluralpha"
         dx="4"
         dy="4"
         result="offsetBlur" />
      <feMerge
         id="feMerge3067-7-24-2-32-9-5">
        <feMergeNode
           id="feMergeNode3069-6-3-5-67-1-3"
           in="offsetBlur" />
        <feMergeNode
           id="feMergeNode3071-8-3-2-21-2-9"
           in="SourceGraphic" />
      </feMerge>
    </filter>
    <filter
       id="filter3059-5-3-03-42-8-0"
       inkscape:label="Drop shadow"
       width="1.5"
       height="1.5"
       x="-0.25"
       y="-0.25"
       color-interpolation-filters="sRGB">
      <feGaussianBlur
         id="feGaussianBlur3061-5-8-3-286-5-8"
         in="SourceAlpha"
         stdDeviation="2"
         result="blur" />
      <feColorMatrix
         id="feColorMatrix3063-1-5-41-67-9-1"
         result="bluralpha"
         type="matrix"
         values="1 0 0 0 0 0 1 0 0 0 0 0 1 0 0 0 0 0 0.5 0 " />
      <feOffset
         id="feOffset3065-81-3-8-72-2-6"
         in="bluralpha"
         dx="4"
         dy="4"
         result="offsetBlur" />
      <feMerge
         id="feMerge3067-7-24-2-32-0-5">
        <feMergeNode
           id="feMergeNode3069-6-3-5-67-3-5"
           in="offsetBlur" />
        <feMergeNode
           id="feMergeNode3071-8-3-2-21-4-2"
           in="SourceGraphic" />
      </feMerge>
    </filter>
    <filter
       id="filter3059-5-3-03-42-5-2"
       inkscape:label="Drop shadow"
       width="1.5"
       height="1.5"
       x="-0.25"
       y="-0.25"
       color-interpolation-filters="sRGB">
      <feGaussianBlur
         id="feGaussianBlur3061-5-8-3-286-4-1"
         in="SourceAlpha"
         stdDeviation="2"
         result="blur" />
      <feColorMatrix
         id="feColorMatrix3063-1-5-41-67-6-2"
         result="bluralpha"
         type="matrix"
         values="1 0 0 0 0 0 1 0 0 0 0 0 1 0 0 0 0 0 0.5 0 " />
      <feOffset
         id="feOffset3065-81-3-8-72-8-5"
         in="bluralpha"
         dx="4"
         dy="4"
         result="offsetBlur" />
      <feMerge
         id="feMerge3067-7-24-2-32-1-6">
        <feMergeNode
           id="feMergeNode3069-6-3-5-67-0-5"
           in="offsetBlur" />
        <feMergeNode
           id="feMergeNode3071-8-3-2-21-5-8"
           in="SourceGraphic" />
      </feMerge>
    </filter>
    <filter
       id="filter3059-5-3-03-42-89"
       inkscape:label="Drop shadow"
       width="1.5"
       height="1.5"
       x="-0.25"
       y="-0.25"
       color-interpolation-filters="sRGB">
      <feGaussianBlur
         id="feGaussianBlur3061-5-8-3-286-9"
         in="SourceAlpha"
         stdDeviation="2"
         result="blur" />
      <feColorMatrix
         id="feColorMatrix3063-1-5-41-67-3"
         result="bluralpha"
         type="matrix"
         values="1 0 0 0 0 0 1 0 0 0 0 0 1 0 0 0 0 0 0.5 0 " />
      <feOffset
         id="feOffset3065-81-3-8-72-4"
         in="bluralpha"
         dx="4"
         dy="4"
         result="offsetBlur" />
      <feMerge
         id="feMerge3067-7-24-2-32-7">
        <feMergeNode
           id="feMergeNode3069-6-3-5-67-01"
           in="offsetBlur" />
        <feMergeNode
           id="feMergeNode3071-8-3-2-21-1"
           in="SourceGraphic" />
      </feMerge>
    </filter>
    <filter
       id="filter3059-5-3-03-42-81-6"
       inkscape:label="Drop shadow"
       width="1.5"
       height="1.5"
       x="-0.25"
       y="-0.25"
       color-interpolation-filters="sRGB">
      <feGaussianBlur
         id="feGaussianBlur3061-5-8-3-286-0-3"
         in="SourceAlpha"
         stdDeviation="2"
         result="blur" />
      <feColorMatrix
         id="feColorMatrix3063-1-5-41-67-97-9"
         result="bluralpha"
         type="matrix"
         values="1 0 0 0 0 0 1 0 0 0 0 0 1 0 0 0 0 0 0.5 0 " />
      <feOffset
         id="feOffset3065-81-3-8-72-3-6"
         in="bluralpha"
         dx="4"
         dy="4"
         result="offsetBlur" />
      <feMerge
         id="feMerge3067-7-24-2-32-9-9">
        <feMergeNode
           id="feMergeNode3069-6-3-5-67-1-5"
           in="offsetBlur" />
        <feMergeNode
           id="feMergeNode3071-8-3-2-21-2-98"
           in="SourceGraphic" />
      </feMerge>
    </filter>
    <filter
       id="filter3059-5-3-03-42-8-1"
       inkscape:label="Drop shadow"
       width="1.5"
       height="1.5"
       x="-0.25"
       y="-0.25"
       color-interpolation-filters="sRGB">
      <feGaussianBlur
         id="feGaussianBlur3061-5-8-3-286-5-7"
         in="SourceAlpha"
         stdDeviation="2"
         result="blur" />
      <feColorMatrix
         id="feColorMatrix3063-1-5-41-67-9-5"
         result="bluralpha"
         type="matrix"
         values="1 0 0 0 0 0 1 0 0 0 0 0 1 0 0 0 0 0 0.5 0 " />
      <feOffset
         id="feOffset3065-81-3-8-72-2-3"
         in="bluralpha"
         dx="4"
         dy="4"
         result="offsetBlur" />
      <feMerge
         id="feMerge3067-7-24-2-32-0-8">
        <feMergeNode
           id="feMergeNode3069-6-3-5-67-3-0"
           in="offsetBlur" />
        <feMergeNode
           id="feMergeNode3071-8-3-2-21-4-7"
           in="SourceGraphic" />
      </feMerge>
    </filter>
    <filter
       id="filter3059-5-3-03-42-5-7"
       inkscape:label="Drop shadow"
       width="1.5"
       height="1.5"
       x="-0.25"
       y="-0.25"
       color-interpolation-filters="sRGB">
      <feGaussianBlur
         id="feGaussianBlur3061-5-8-3-286-4-3"
         in="SourceAlpha"
         stdDeviation="2"
         result="blur" />
      <feColorMatrix
         id="feColorMatrix3063-1-5-41-67-6-4"
         result="bluralpha"
         type="matrix"
         values="1 0 0 0 0 0 1 0 0 0 0 0 1 0 0 0 0 0 0.5 0 " />
      <feOffset
         id="feOffset3065-81-3-8-72-8-6"
         in="bluralpha"
         dx="4"
         dy="4"
         result="offsetBlur" />
      <feMerge
         id="feMerge3067-7-24-2-32-1-5">
        <feMergeNode
           id="feMergeNode3069-6-3-5-67-0-55"
           in="offsetBlur" />
        <feMergeNode
           id="feMergeNode3071-8-3-2-21-5-89"
           in="SourceGraphic" />
      </feMerge>
    </filter>
    <filter
       id="filter3059-5-3-03-42-3"
       inkscape:label="Drop shadow"
       width="1.5"
       height="1.5"
       x="-0.25"
       y="-0.25"
       color-interpolation-filters="sRGB">
      <feGaussianBlur
         id="feGaussianBlur3061-5-8-3-286-96"
         in="SourceAlpha"
         stdDeviation="2"
         result="blur" />
      <feColorMatrix
         id="feColorMatrix3063-1-5-41-67-64"
         result="bluralpha"
         type="matrix"
         values="1 0 0 0 0 0 1 0 0 0 0 0 1 0 0 0 0 0 0.5 0 " />
      <feOffset
         id="feOffset3065-81-3-8-72-1"
         in="bluralpha"
         dx="4"
         dy="4"
         result="offsetBlur" />
      <feMerge
         id="feMerge3067-7-24-2-32-5">
        <feMergeNode
           id="feMergeNode3069-6-3-5-67-07"
           in="offsetBlur" />
        <feMergeNode
           id="feMergeNode3071-8-3-2-21-6"
           in="SourceGraphic" />
      </feMerge>
    </filter>
    <filter
       id="filter3059-5-3-03-42-81-7"
       inkscape:label="Drop shadow"
       width="1.5"
       height="1.5"
       x="-0.25"
       y="-0.25"
       color-interpolation-filters="sRGB">
      <feGaussianBlur
         id="feGaussianBlur3061-5-8-3-286-0-0"
         in="SourceAlpha"
         stdDeviation="2"
         result="blur" />
      <feColorMatrix
         id="feColorMatrix3063-1-5-41-67-97-5"
         result="bluralpha"
         type="matrix"
         values="1 0 0 0 0 0 1 0 0 0 0 0 1 0 0 0 0 0 0.5 0 " />
      <feOffset
         id="feOffset3065-81-3-8-72-3-0"
         in="bluralpha"
         dx="4"
         dy="4"
         result="offsetBlur" />
      <feMerge
         id="feMerge3067-7-24-2-32-9-7">
        <feMergeNode
           id="feMergeNode3069-6-3-5-67-1-2"
           in="offsetBlur" />
        <feMergeNode
           id="feMergeNode3071-8-3-2-21-2-8"
           in="SourceGraphic" />
      </feMerge>
    </filter>
    <filter
       id="filter3059-5-3-03-42-8-4"
       inkscape:label="Drop shadow"
       width="1.5"
       height="1.5"
       x="-0.25"
       y="-0.25"
       color-interpolation-filters="sRGB">
      <feGaussianBlur
         id="feGaussianBlur3061-5-8-3-286-5-2"
         in="SourceAlpha"
         stdDeviation="2"
         result="blur" />
      <feColorMatrix
         id="feColorMatrix3063-1-5-41-67-9-57"
         result="bluralpha"
         type="matrix"
         values="1 0 0 0 0 0 1 0 0 0 0 0 1 0 0 0 0 0 0.5 0 " />
      <feOffset
         id="feOffset3065-81-3-8-72-2-38"
         in="bluralpha"
         dx="4"
         dy="4"
         result="offsetBlur" />
      <feMerge
         id="feMerge3067-7-24-2-32-0-9">
        <feMergeNode
           id="feMergeNode3069-6-3-5-67-3-1"
           in="offsetBlur" />
        <feMergeNode
           id="feMergeNode3071-8-3-2-21-4-1"
           in="SourceGraphic" />
      </feMerge>
    </filter>
    <filter
       id="filter3059-5-3-03-42-5-9"
       inkscape:label="Drop shadow"
       width="1.5"
       height="1.5"
       x="-0.25"
       y="-0.25"
       color-interpolation-filters="sRGB">
      <feGaussianBlur
         id="feGaussianBlur3061-5-8-3-286-4-9"
         in="SourceAlpha"
         stdDeviation="2"
         result="blur" />
      <feColorMatrix
         id="feColorMatrix3063-1-5-41-67-6-7"
         result="bluralpha"
         type="matrix"
         values="1 0 0 0 0 0 1 0 0 0 0 0 1 0 0 0 0 0 0.5 0 " />
      <feOffset
         id="feOffset3065-81-3-8-72-8-0"
         in="bluralpha"
         dx="4"
         dy="4"
         result="offsetBlur" />
      <feMerge
         id="feMerge3067-7-24-2-32-1-9">
        <feMergeNode
           id="feMergeNode3069-6-3-5-67-0-6"
           in="offsetBlur" />
        <feMergeNode
           id="feMergeNode3071-8-3-2-21-5-6"
           in="SourceGraphic" />
      </feMerge>
    </filter>
    <filter
       id="filter3059-5-3-03-42-2"
       inkscape:label="Drop shadow"
       width="1.5"
       height="1.5"
       x="-0.25"
       y="-0.25"
       color-interpolation-filters="sRGB">
      <feGaussianBlur
         id="feGaussianBlur3061-5-8-3-286-8"
         in="SourceAlpha"
         stdDeviation="2"
         result="blur" />
      <feColorMatrix
         id="feColorMatrix3063-1-5-41-67-8"
         result="bluralpha"
         type="matrix"
         values="1 0 0 0 0 0 1 0 0 0 0 0 1 0 0 0 0 0 0.5 0 " />
      <feOffset
         id="feOffset3065-81-3-8-72-16"
         in="bluralpha"
         dx="4"
         dy="4"
         result="offsetBlur" />
      <feMerge
         id="feMerge3067-7-24-2-32-57">
        <feMergeNode
           id="feMergeNode3069-6-3-5-67-9"
           in="offsetBlur" />
        <feMergeNode
           id="feMergeNode3071-8-3-2-21-3"
           in="SourceGraphic" />
      </feMerge>
    </filter>
    <filter
       id="filter3059-5-3-03-42-81-9"
       inkscape:label="Drop shadow"
       width="1.5"
       height="1.5"
       x="-0.25"
       y="-0.25"
       color-interpolation-filters="sRGB">
      <feGaussianBlur
         id="feGaussianBlur3061-5-8-3-286-0-9"
         in="SourceAlpha"
         stdDeviation="2"
         result="blur" />
      <feColorMatrix
         id="feColorMatrix3063-1-5-41-67-97-97"
         result="bluralpha"
         type="matrix"
         values="1 0 0 0 0 0 1 0 0 0 0 0 1 0 0 0 0 0 0.5 0 " />
      <feOffset
         id="feOffset3065-81-3-8-72-3-9"
         in="bluralpha"
         dx="4"
         dy="4"
         result="offsetBlur" />
      <feMerge
         id="feMerge3067-7-24-2-32-9-6">
        <feMergeNode
           id="feMergeNode3069-6-3-5-67-1-30"
           in="offsetBlur" />
        <feMergeNode
           id="feMergeNode3071-8-3-2-21-2-6"
           in="SourceGraphic" />
      </feMerge>
    </filter>
    <filter
       id="filter3059-5-3-03-42-8-6"
       inkscape:label="Drop shadow"
       width="1.5"
       height="1.5"
       x="-0.25"
       y="-0.25"
       color-interpolation-filters="sRGB">
      <feGaussianBlur
         id="feGaussianBlur3061-5-8-3-286-5-83"
         in="SourceAlpha"
         stdDeviation="2"
         result="blur" />
      <feColorMatrix
         id="feColorMatrix3063-1-5-41-67-9-3"
         result="bluralpha"
         type="matrix"
         values="1 0 0 0 0 0 1 0 0 0 0 0 1 0 0 0 0 0 0.5 0 " />
      <feOffset
         id="feOffset3065-81-3-8-72-2-5"
         in="bluralpha"
         dx="4"
         dy="4"
         result="offsetBlur" />
      <feMerge
         id="feMerge3067-7-24-2-32-0-7">
        <feMergeNode
           id="feMergeNode3069-6-3-5-67-3-2"
           in="offsetBlur" />
        <feMergeNode
           id="feMergeNode3071-8-3-2-21-4-0"
           in="SourceGraphic" />
      </feMerge>
    </filter>
    <filter
       id="filter3059-5-3-03-42-5-73"
       inkscape:label="Drop shadow"
       width="1.5"
       height="1.5"
       x="-0.25"
       y="-0.25"
       color-interpolation-filters="sRGB">
      <feGaussianBlur
         id="feGaussianBlur3061-5-8-3-286-4-8"
         in="SourceAlpha"
         stdDeviation="2"
         result="blur" />
      <feColorMatrix
         id="feColorMatrix3063-1-5-41-67-6-72"
         result="bluralpha"
         type="matrix"
         values="1 0 0 0 0 0 1 0 0 0 0 0 1 0 0 0 0 0 0.5 0 " />
      <feOffset
         id="feOffset3065-81-3-8-72-8-1"
         in="bluralpha"
         dx="4"
         dy="4"
         result="offsetBlur" />
      <feMerge
         id="feMerge3067-7-24-2-32-1-3">
        <feMergeNode
           id="feMergeNode3069-6-3-5-67-0-3"
           in="offsetBlur" />
        <feMergeNode
           id="feMergeNode3071-8-3-2-21-5-9"
           in="SourceGraphic" />
      </feMerge>
    </filter>
    <filter
       id="filter3059-5-3-03-42-53"
       inkscape:label="Drop shadow"
       width="1.5"
       height="1.5"
       x="-0.25"
       y="-0.25"
       color-interpolation-filters="sRGB">
      <feGaussianBlur
         id="feGaussianBlur3061-5-8-3-286-2"
         in="SourceAlpha"
         stdDeviation="2"
         result="blur" />
      <feColorMatrix
         id="feColorMatrix3063-1-5-41-67-4"
         result="bluralpha"
         type="matrix"
         values="1 0 0 0 0 0 1 0 0 0 0 0 1 0 0 0 0 0 0.5 0 " />
      <feOffset
         id="feOffset3065-81-3-8-72-83"
         in="bluralpha"
         dx="4"
         dy="4"
         result="offsetBlur" />
      <feMerge
         id="feMerge3067-7-24-2-32-59">
        <feMergeNode
           id="feMergeNode3069-6-3-5-67-2"
           in="offsetBlur" />
        <feMergeNode
           id="feMergeNode3071-8-3-2-21-67"
           in="SourceGraphic" />
      </feMerge>
    </filter>
  </defs>
  <sodipodi:namedview
     id="base"
     pagecolor="#ffffff"
     bordercolor="#666666"
     borderopacity="1.0"
     inkscape:pageopacity="0.0"
     inkscape:pageshadow="2"
     inkscape:zoom="0.36432564"
     inkscape:cx="-37.058152"
     inkscape:cy="561.31104"
     inkscape:document-units="px"
     inkscape:current-layer="layer1"
     showgrid="false"
     fit-margin-top="20"
     fit-margin-left="20"
     fit-margin-right="20"
     fit-margin-bottom="20"
     inkscape:window-width="849"
     inkscape:window-height="632"
     inkscape:window-x="387"
     inkscape:window-y="131"
     inkscape:window-maximized="0"
     inkscape:snap-object-midpoints="true" />
  <metadata
     id="metadata5222">
    <rdf:RDF>
      <cc:Work
         rdf:about="">
        <dc:format>image/svg+xml</dc:format>
        <dc:type
           rdf:resource="http://purl.org/dc/dcmitype/StillImage" />
        <dc:title />
      </cc:Work>
    </rdf:RDF>
  </metadata>
  <g
     inkscape:label="Layer 1"
     inkscape:groupmode="layer"
     id="layer1"
     transform="translate(-181.38903,-25.185175)">
    <g
       id="g3236"
       transform="translate(12.888354,0)">
      <path
         transform="translate(181.38903,25.185175)"
         inkscape:connector-curvature="0"
         id="path3232"
         d="M 72.422857,154.64668 151.10445,80.137273"
         style="fill:none;stroke:#000000;stroke-width:1px;stroke-linecap:butt;stroke-linejoin:miter;stroke-opacity:1" />
      <path
         transform="translate(181.38903,25.185175)"
         inkscape:connector-curvature="0"
         id="path3234"
         d="m 151.10445,80.137273 74.47078,78.724087 -78.68496,74.29659 -74.467413,-78.51127"
         style="fill:none;stroke:#000000;stroke-width:1px;stroke-linecap:butt;stroke-linejoin:miter;stroke-opacity:1" />
      <g
         id="g8470-86-43-7"
         style="display:inline"
         transform="matrix(1.5530757,0,0,1.5530757,204.64689,-217.90105)">
        <g
           id="g8472-1-44-7"
           style="filter:url(#filter3059-5-3-03-42-8)"
           transform="translate(16.318323,17.118315)">
          <path
             inkscape:connector-curvature="0"
             id="path8474-64-4-1"
             d="m 84,191 c 0,9.94113 -8.058875,18 -18,18 -9.941125,0 -18,-8.05887 -18,-18 0,-9.94113 8.058875,-18 18,-18 9.941125,0 18,8.05887 18,18 z"
             style="fill:#add8e6" />
          <path
             inkscape:connector-curvature="0"
             id="path8476-55-44-6"
             d="m 84,191 c 0,9.94113 -8.058875,18 -18,18 -9.941125,0 -18,-8.05887 -18,-18 0,-9.94113 8.058875,-18 18,-18 9.941125,0 18,8.05887 18,18 z"
             style="fill:none;stroke:#000000;stroke-width:2" />
        </g>
      </g>
      <g
         id="g8470-86-43-1"
         style="display:inline"
         transform="matrix(1.5530757,0,0,1.5530757,279.11767,-139.17696)">
        <g
           id="g8472-1-44-8"
           style="filter:url(#filter3059-5-3-03-42-5)"
           transform="translate(16.318323,17.118315)">
          <path
             inkscape:connector-curvature="0"
             id="path8474-64-4-9"
             d="m 84,191 c 0,9.94113 -8.058875,18 -18,18 -9.941125,0 -18,-8.05887 -18,-18 0,-9.94113 8.058875,-18 18,-18 9.941125,0 18,8.05887 18,18 z"
             style="fill:#add8e6" />
          <path
             inkscape:connector-curvature="0"
             id="path8476-55-44-1"
             d="m 84,191 c 0,9.94113 -8.058875,18 -18,18 -9.941125,0 -18,-8.05887 -18,-18 0,-9.94113 8.058875,-18 18,-18 9.941125,0 18,8.05887 18,18 z"
             style="fill:none;stroke:#000000;stroke-width:2" />
        </g>
      </g>
      <g
         id="g8470-86-43-6"
         style="display:inline"
         transform="matrix(1.5530757,0,0,1.5530757,200.43271,-64.880374)">
        <g
           id="g8472-1-44-2"
           style="filter:url(#filter3059-5-3-03-42-81)"
           transform="translate(16.318323,17.118315)">
          <path
             inkscape:connector-curvature="0"
             id="path8474-64-4-6"
             d="m 84,191 c 0,9.94113 -8.058875,18 -18,18 -9.941125,0 -18,-8.05887 -18,-18 0,-9.94113 8.058875,-18 18,-18 9.941125,0 18,8.05887 18,18 z"
             style="fill:#add8e6" />
          <path
             inkscape:connector-curvature="0"
             id="path8476-55-44-65"
             d="m 84,191 c 0,9.94113 -8.058875,18 -18,18 -9.941125,0 -18,-8.05887 -18,-18 0,-9.94113 8.058875,-18 18,-18 9.941125,0 18,8.05887 18,18 z"
             style="fill:none;stroke:#000000;stroke-width:2" />
        </g>
      </g>
      <g
         id="g8470-86-43"
         style="display:inline"
         transform="matrix(1.5530757,0,0,1.5530757,125.9653,-143.39164)">
        <g
           id="g8472-1-44"
           style="filter:url(#filter3059-5-3-03-42)"
           transform="translate(16.318323,17.118315)">
          <path
             inkscape:connector-curvature="0"
             id="path8474-64-4"
             d="m 84,191 c 0,9.94113 -8.058875,18 -18,18 -9.941125,0 -18,-8.05887 -18,-18 0,-9.94113 8.058875,-18 18,-18 9.941125,0 18,8.05887 18,18 z"
             style="fill:#add8e6" />
          <path
             inkscape:connector-curvature="0"
             id="path8476-55-44"
             d="m 84,191 c 0,9.94113 -8.058875,18 -18,18 -9.941125,0 -18,-8.05887 -18,-18 0,-9.94113 8.058875,-18 18,-18 9.941125,0 18,8.05887 18,18 z"
             style="fill:none;stroke:#000000;stroke-width:2" />
        </g>
      </g>
    </g>
    <g
       id="g3256"
       transform="translate(12.888353,258.68722)">
      <path
         style="fill:none;stroke:#000000;stroke-width:1px;stroke-linecap:butt;stroke-linejoin:miter;stroke-opacity:1"
         d="M 72.422857,154.64668 151.10445,80.137273"
         id="path3258"
         inkscape:connector-curvature="0"
         transform="translate(181.38903,25.185175)" />
      <path
         style="fill:none;stroke:#000000;stroke-width:1px;stroke-linecap:butt;stroke-linejoin:miter;stroke-opacity:1"
         d="m 151.10445,80.137273 74.47078,78.724087 -78.68496,74.29659 -74.467413,-78.51127"
         id="path3260"
         inkscape:connector-curvature="0"
         transform="translate(181.38903,25.185175)" />
      <g
         transform="matrix(1.5530757,0,0,1.5530757,204.64689,-217.90105)"
         style="display:inline"
         id="g3262">
        <g
           transform="translate(16.318323,17.118315)"
           style="filter:url(#filter3059-5-3-03-42-8)"
           id="g3264">
          <path
             style="fill:#add8e6"
             d="m 84,191 c 0,9.94113 -8.058875,18 -18,18 -9.941125,0 -18,-8.05887 -18,-18 0,-9.94113 8.058875,-18 18,-18 9.941125,0 18,8.05887 18,18 z"
             id="path3266"
             inkscape:connector-curvature="0" />
          <path
             style="fill:none;stroke:#000000;stroke-width:2"
             d="m 84,191 c 0,9.94113 -8.058875,18 -18,18 -9.941125,0 -18,-8.05887 -18,-18 0,-9.94113 8.058875,-18 18,-18 9.941125,0 18,8.05887 18,18 z"
             id="path3268"
             inkscape:connector-curvature="0" />
        </g>
      </g>
      <g
         transform="matrix(1.5530757,0,0,1.5530757,279.11767,-139.17696)"
         style="display:inline"
         id="g3270">
        <g
           transform="translate(16.318323,17.118315)"
           style="filter:url(#filter3059-5-3-03-42-5)"
           id="g3272">
          <path
             style="fill:#add8e6"
             d="m 84,191 c 0,9.94113 -8.058875,18 -18,18 -9.941125,0 -18,-8.05887 -18,-18 0,-9.94113 8.058875,-18 18,-18 9.941125,0 18,8.05887 18,18 z"
             id="path3274"
             inkscape:connector-curvature="0" />
          <path
             style="fill:none;stroke:#000000;stroke-width:2"
             d="m 84,191 c 0,9.94113 -8.058875,18 -18,18 -9.941125,0 -18,-8.05887 -18,-18 0,-9.94113 8.058875,-18 18,-18 9.941125,0 18,8.05887 18,18 z"
             id="path3276"
             inkscape:connector-curvature="0" />
        </g>
      </g>
      <g
         transform="matrix(1.5530757,0,0,1.5530757,200.43271,-64.880374)"
         style="display:inline"
         id="g3278">
        <g
           transform="translate(16.318323,17.118315)"
           style="filter:url(#filter3059-5-3-03-42-81)"
           id="g3280">
          <path
             style="fill:#add8e6"
             d="m 84,191 c 0,9.94113 -8.058875,18 -18,18 -9.941125,0 -18,-8.05887 -18,-18 0,-9.94113 8.058875,-18 18,-18 9.941125,0 18,8.05887 18,18 z"
             id="path3282"
             inkscape:connector-curvature="0" />
          <path
             style="fill:none;stroke:#000000;stroke-width:2"
             d="m 84,191 c 0,9.94113 -8.058875,18 -18,18 -9.941125,0 -18,-8.05887 -18,-18 0,-9.94113 8.058875,-18 18,-18 9.941125,0 18,8.05887 18,18 z"
             id="path3284"
             inkscape:connector-curvature="0" />
        </g>
      </g>
      <g
         transform="matrix(1.5530757,0,0,1.5530757,125.9653,-143.39164)"
         style="display:inline"
         id="g3286">
        <g
           transform="translate(16.318323,17.118315)"
           style="filter:url(#filter3059-5-3-03-42)"
           id="g3288">
          <path
             style="fill:#add8e6"
             d="m 84,191 c 0,9.94113 -8.058875,18 -18,18 -9.941125,0 -18,-8.05887 -18,-18 0,-9.94113 8.058875,-18 18,-18 9.941125,0 18,8.05887 18,18 z"
             id="path3290"
             inkscape:connector-curvature="0" />
          <path
             style="fill:none;stroke:#000000;stroke-width:2"
             d="m 84,191 c 0,9.94113 -8.058875,18 -18,18 -9.941125,0 -18,-8.05887 -18,-18 0,-9.94113 8.058875,-18 18,-18 9.941125,0 18,8.05887 18,18 z"
             id="path3292"
             inkscape:connector-curvature="0" />
        </g>
      </g>
    </g>
    <g
       transform="translate(12.888353,514.62967)"
       id="g3294">
      <path
         transform="translate(181.38903,25.185175)"
         inkscape:connector-curvature="0"
         id="path3296"
         d="M 72.422857,154.64668 151.10445,80.137273"
         style="fill:none;stroke:#000000;stroke-width:1px;stroke-linecap:butt;stroke-linejoin:miter;stroke-opacity:1" />
      <path
         transform="translate(181.38903,25.185175)"
         inkscape:connector-curvature="0"
         id="path3298"
         d="m 151.10445,80.137273 74.47078,78.724087 -78.68496,74.29659 -74.467413,-78.51127"
         style="fill:none;stroke:#000000;stroke-width:1px;stroke-linecap:butt;stroke-linejoin:miter;stroke-opacity:1" />
      <g
         id="g3300"
         style="display:inline"
         transform="matrix(1.5530757,0,0,1.5530757,204.64689,-217.90105)">
        <g
           id="g3302"
           style="filter:url(#filter3059-5-3-03-42-8)"
           transform="translate(16.318323,17.118315)">
          <path
             inkscape:connector-curvature="0"
             id="path3304"
             d="m 84,191 c 0,9.94113 -8.058875,18 -18,18 -9.941125,0 -18,-8.05887 -18,-18 0,-9.94113 8.058875,-18 18,-18 9.941125,0 18,8.05887 18,18 z"
             style="fill:#add8e6" />
          <path
             inkscape:connector-curvature="0"
             id="path3306"
             d="m 84,191 c 0,9.94113 -8.058875,18 -18,18 -9.941125,0 -18,-8.05887 -18,-18 0,-9.94113 8.058875,-18 18,-18 9.941125,0 18,8.05887 18,18 z"
             style="fill:none;stroke:#000000;stroke-width:2" />
        </g>
      </g>
      <g
         id="g3308"
         style="display:inline"
         transform="matrix(1.5530757,0,0,1.5530757,279.11767,-139.17696)">
        <g
           id="g3310"
           style="filter:url(#filter3059-5-3-03-42-5)"
           transform="translate(16.318323,17.118315)">
          <path
             inkscape:connector-curvature="0"
             id="path3312"
             d="m 84,191 c 0,9.94113 -8.058875,18 -18,18 -9.941125,0 -18,-8.05887 -18,-18 0,-9.94113 8.058875,-18 18,-18 9.941125,0 18,8.05887 18,18 z"
             style="fill:#add8e6" />
          <path
             inkscape:connector-curvature="0"
             id="path3314"
             d="m 84,191 c 0,9.94113 -8.058875,18 -18,18 -9.941125,0 -18,-8.05887 -18,-18 0,-9.94113 8.058875,-18 18,-18 9.941125,0 18,8.05887 18,18 z"
             style="fill:none;stroke:#000000;stroke-width:2" />
        </g>
      </g>
      <g
         id="g3316"
         style="display:inline"
         transform="matrix(1.5530757,0,0,1.5530757,200.43271,-64.880374)">
        <g
           id="g3318"
           style="filter:url(#filter3059-5-3-03-42-81)"
           transform="translate(16.318323,17.118315)">
          <path
             inkscape:connector-curvature="0"
             id="path3320"
             d="m 84,191 c 0,9.94113 -8.058875,18 -18,18 -9.941125,0 -18,-8.05887 -18,-18 0,-9.94113 8.058875,-18 18,-18 9.941125,0 18,8.05887 18,18 z"
             style="fill:#add8e6" />
          <path
             inkscape:connector-curvature="0"
             id="path3322"
             d="m 84,191 c 0,9.94113 -8.058875,18 -18,18 -9.941125,0 -18,-8.05887 -18,-18 0,-9.94113 8.058875,-18 18,-18 9.941125,0 18,8.05887 18,18 z"
             style="fill:none;stroke:#000000;stroke-width:2" />
        </g>
      </g>
      <g
         id="g3324"
         style="display:inline"
         transform="matrix(1.5530757,0,0,1.5530757,125.9653,-143.39164)">
        <g
           id="g3326"
           style="filter:url(#filter3059-5-3-03-42)"
           transform="translate(16.318323,17.118315)">
          <path
             inkscape:connector-curvature="0"
             id="path3328"
             d="m 84,191 c 0,9.94113 -8.058875,18 -18,18 -9.941125,0 -18,-8.05887 -18,-18 0,-9.94113 8.058875,-18 18,-18 9.941125,0 18,8.05887 18,18 z"
             style="fill:#add8e6" />
          <path
             inkscape:connector-curvature="0"
             id="path3330"
             d="m 84,191 c 0,9.94113 -8.058875,18 -18,18 -9.941125,0 -18,-8.05887 -18,-18 0,-9.94113 8.058875,-18 18,-18 9.941125,0 18,8.05887 18,18 z"
             style="fill:none;stroke:#000000;stroke-width:2" />
        </g>
      </g>
    </g>
    <g
       id="g3332"
       transform="translate(12.888353,771.94452)">
      <path
         style="fill:none;stroke:#000000;stroke-width:1px;stroke-linecap:butt;stroke-linejoin:miter;stroke-opacity:1"
         d="M 72.422857,154.64668 151.10445,80.137273"
         id="path3334"
         inkscape:connector-curvature="0"
         transform="translate(181.38903,25.185175)" />
      <path
         style="fill:none;stroke:#000000;stroke-width:1px;stroke-linecap:butt;stroke-linejoin:miter;stroke-opacity:1"
         d="m 151.10445,80.137273 74.47078,78.724087 -78.68496,74.29659 -74.467413,-78.51127"
         id="path3336"
         inkscape:connector-curvature="0"
         transform="translate(181.38903,25.185175)" />
      <g
         transform="matrix(1.5530757,0,0,1.5530757,204.64689,-217.90105)"
         style="display:inline"
         id="g3338">
        <g
           transform="translate(16.318323,17.118315)"
           style="filter:url(#filter3059-5-3-03-42-8)"
           id="g3340">
          <path
             style="fill:#add8e6"
             d="m 84,191 c 0,9.94113 -8.058875,18 -18,18 -9.941125,0 -18,-8.05887 -18,-18 0,-9.94113 8.058875,-18 18,-18 9.941125,0 18,8.05887 18,18 z"
             id="path3342"
             inkscape:connector-curvature="0" />
          <path
             style="fill:none;stroke:#000000;stroke-width:2"
             d="m 84,191 c 0,9.94113 -8.058875,18 -18,18 -9.941125,0 -18,-8.05887 -18,-18 0,-9.94113 8.058875,-18 18,-18 9.941125,0 18,8.05887 18,18 z"
             id="path3344"
             inkscape:connector-curvature="0" />
        </g>
      </g>
      <g
         transform="matrix(1.5530757,0,0,1.5530757,279.11767,-139.17696)"
         style="display:inline"
         id="g3346">
        <g
           transform="translate(16.318323,17.118315)"
           style="filter:url(#filter3059-5-3-03-42-5)"
           id="g3348">
          <path
             style="fill:#add8e6"
             d="m 84,191 c 0,9.94113 -8.058875,18 -18,18 -9.941125,0 -18,-8.05887 -18,-18 0,-9.94113 8.058875,-18 18,-18 9.941125,0 18,8.05887 18,18 z"
             id="path3350"
             inkscape:connector-curvature="0" />
          <path
             style="fill:none;stroke:#000000;stroke-width:2"
             d="m 84,191 c 0,9.94113 -8.058875,18 -18,18 -9.941125,0 -18,-8.05887 -18,-18 0,-9.94113 8.058875,-18 18,-18 9.941125,0 18,8.05887 18,18 z"
             id="path3352"
             inkscape:connector-curvature="0" />
        </g>
      </g>
      <g
         transform="matrix(1.5530757,0,0,1.5530757,200.43271,-64.880374)"
         style="display:inline"
         id="g3354">
        <g
           transform="translate(16.318323,17.118315)"
           style="filter:url(#filter3059-5-3-03-42-81)"
           id="g3356">
          <path
             style="fill:#add8e6"
             d="m 84,191 c 0,9.94113 -8.058875,18 -18,18 -9.941125,0 -18,-8.05887 -18,-18 0,-9.94113 8.058875,-18 18,-18 9.941125,0 18,8.05887 18,18 z"
             id="path3358"
             inkscape:connector-curvature="0" />
          <path
             style="fill:none;stroke:#000000;stroke-width:2"
             d="m 84,191 c 0,9.94113 -8.058875,18 -18,18 -9.941125,0 -18,-8.05887 -18,-18 0,-9.94113 8.058875,-18 18,-18 9.941125,0 18,8.05887 18,18 z"
             id="path3360"
             inkscape:connector-curvature="0" />
        </g>
      </g>
      <g
         transform="matrix(1.5530757,0,0,1.5530757,125.9653,-143.39164)"
         style="display:inline"
         id="g3362">
        <g
           transform="translate(16.318323,17.118315)"
           style="filter:url(#filter3059-5-3-03-42)"
           id="g3364">
          <path
             style="fill:#add8e6"
             d="m 84,191 c 0,9.94113 -8.058875,18 -18,18 -9.941125,0 -18,-8.05887 -18,-18 0,-9.94113 8.058875,-18 18,-18 9.941125,0 18,8.05887 18,18 z"
             id="path3366"
             inkscape:connector-curvature="0" />
          <path
             style="fill:none;stroke:#000000;stroke-width:2"
             d="m 84,191 c 0,9.94113 -8.058875,18 -18,18 -9.941125,0 -18,-8.05887 -18,-18 0,-9.94113 8.058875,-18 18,-18 9.941125,0 18,8.05887 18,18 z"
             id="path3368"
             inkscape:connector-curvature="0" />
        </g>
      </g>
    </g>
    <g
       transform="translate(301.09206,258.68722)"
       id="g3370">
      <path
         transform="translate(181.38903,25.185175)"
         inkscape:connector-curvature="0"
         id="path3372"
         d="M 72.422857,154.64668 151.10445,80.137273"
         style="fill:none;stroke:#000000;stroke-width:1px;stroke-linecap:butt;stroke-linejoin:miter;stroke-opacity:1" />
      <path
         transform="translate(181.38903,25.185175)"
         inkscape:connector-curvature="0"
         id="path3374"
         d="m 151.10445,80.137273 74.47078,78.724087 -78.68496,74.29659 -74.467413,-78.51127"
         style="fill:none;stroke:#000000;stroke-width:1px;stroke-linecap:butt;stroke-linejoin:miter;stroke-opacity:1" />
      <g
         id="g3376"
         style="display:inline"
         transform="matrix(1.5530757,0,0,1.5530757,204.64689,-217.90105)">
        <g
           id="g3378"
           style="filter:url(#filter3059-5-3-03-42-8)"
           transform="translate(16.318323,17.118315)">
          <path
             inkscape:connector-curvature="0"
             id="path3380"
             d="m 84,191 c 0,9.94113 -8.058875,18 -18,18 -9.941125,0 -18,-8.05887 -18,-18 0,-9.94113 8.058875,-18 18,-18 9.941125,0 18,8.05887 18,18 z"
             style="fill:#add8e6" />
          <path
             inkscape:connector-curvature="0"
             id="path3382"
             d="m 84,191 c 0,9.94113 -8.058875,18 -18,18 -9.941125,0 -18,-8.05887 -18,-18 0,-9.94113 8.058875,-18 18,-18 9.941125,0 18,8.05887 18,18 z"
             style="fill:none;stroke:#000000;stroke-width:2" />
        </g>
      </g>
      <g
         id="g3384"
         style="display:inline"
         transform="matrix(1.5530757,0,0,1.5530757,279.11767,-139.17696)">
        <g
           id="g3386"
           style="filter:url(#filter3059-5-3-03-42-5)"
           transform="translate(16.318323,17.118315)">
          <path
             inkscape:connector-curvature="0"
             id="path3388"
             d="m 84,191 c 0,9.94113 -8.058875,18 -18,18 -9.941125,0 -18,-8.05887 -18,-18 0,-9.94113 8.058875,-18 18,-18 9.941125,0 18,8.05887 18,18 z"
             style="fill:#add8e6" />
          <path
             inkscape:connector-curvature="0"
             id="path3390"
             d="m 84,191 c 0,9.94113 -8.058875,18 -18,18 -9.941125,0 -18,-8.05887 -18,-18 0,-9.94113 8.058875,-18 18,-18 9.941125,0 18,8.05887 18,18 z"
             style="fill:none;stroke:#000000;stroke-width:2" />
        </g>
      </g>
      <g
         id="g3392"
         style="display:inline"
         transform="matrix(1.5530757,0,0,1.5530757,200.43271,-64.880374)">
        <g
           id="g3394"
           style="filter:url(#filter3059-5-3-03-42-81)"
           transform="translate(16.318323,17.118315)">
          <path
             inkscape:connector-curvature="0"
             id="path3396"
             d="m 84,191 c 0,9.94113 -8.058875,18 -18,18 -9.941125,0 -18,-8.05887 -18,-18 0,-9.94113 8.058875,-18 18,-18 9.941125,0 18,8.05887 18,18 z"
             style="fill:#add8e6" />
          <path
             inkscape:connector-curvature="0"
             id="path3398"
             d="m 84,191 c 0,9.94113 -8.058875,18 -18,18 -9.941125,0 -18,-8.05887 -18,-18 0,-9.94113 8.058875,-18 18,-18 9.941125,0 18,8.05887 18,18 z"
             style="fill:none;stroke:#000000;stroke-width:2" />
        </g>
      </g>
      <g
         id="g3400"
         style="display:inline"
         transform="matrix(1.5530757,0,0,1.5530757,125.9653,-143.39164)">
        <g
           id="g3402"
           style="filter:url(#filter3059-5-3-03-42)"
           transform="translate(16.318323,17.118315)">
          <path
             inkscape:connector-curvature="0"
             id="path3404"
             d="m 84,191 c 0,9.94113 -8.058875,18 -18,18 -9.941125,0 -18,-8.05887 -18,-18 0,-9.94113 8.058875,-18 18,-18 9.941125,0 18,8.05887 18,18 z"
             style="fill:#add8e6" />
          <path
             inkscape:connector-curvature="0"
             id="path3406"
             d="m 84,191 c 0,9.94113 -8.058875,18 -18,18 -9.941125,0 -18,-8.05887 -18,-18 0,-9.94113 8.058875,-18 18,-18 9.941125,0 18,8.05887 18,18 z"
             style="fill:none;stroke:#000000;stroke-width:2" />
        </g>
      </g>
    </g>
  </g>
</svg>
